<?xml version="1.0" encoding="UTF-8" standalone="no"?>
<!-- Created with Inkscape (http://www.inkscape.org/) -->

<svg
   xmlns:dc="http://purl.org/dc/elements/1.1/"
   xmlns:cc="http://creativecommons.org/ns#"
   xmlns:rdf="http://www.w3.org/1999/02/22-rdf-syntax-ns#"
   xmlns:svg="http://www.w3.org/2000/svg"
   xmlns="http://www.w3.org/2000/svg"
   xmlns:sodipodi="http://sodipodi.sourceforge.net/DTD/sodipodi-0.dtd"
   xmlns:inkscape="http://www.inkscape.org/namespaces/inkscape"
   width="480"
   height="800"
   viewBox="0 0 480 800.00001"
   id="svg2"
   version="1.1"
   inkscape:version="0.91 r13725"
   sodipodi:docname="SplashScreen.svg"
   inkscape:export-xdpi="126"
   inkscape:export-ydpi="126">
  <defs
     id="defs4" />
  <sodipodi:namedview
     id="base"
     pagecolor="#109ced"
     bordercolor="#000000"
     borderopacity="0.25098039"
     inkscape:pageopacity="0"
     inkscape:pageshadow="2"
     inkscape:zoom="0.66"
     inkscape:cx="-61.212123"
     inkscape:cy="407.76655"
     inkscape:document-units="px"
     inkscape:current-layer="layer1"
     showgrid="false"
     units="px"
     inkscape:window-width="1920"
     inkscape:window-height="1003"
     inkscape:window-x="-9"
     inkscape:window-y="-9"
     inkscape:window-maximized="1"
     showguides="true" />
  <metadata
     id="metadata7">
    <rdf:RDF>
      <cc:Work
         rdf:about="">
        <dc:format>image/svg+xml</dc:format>
        <dc:type
           rdf:resource="http://purl.org/dc/dcmitype/StillImage" />
        <dc:title></dc:title>
      </cc:Work>
    </rdf:RDF>
  </metadata>
  <g
     inkscape:label="Layer 1"
     inkscape:groupmode="layer"
     id="layer1"
     transform="translate(0,-252.36216)">
    <g
       transform="matrix(0.5558281,0,0,0.55528314,106.66667,289.93874)"
       style="font-style:normal;font-weight:normal;font-size:361.58905029px;line-height:125%;font-family:sans-serif;letter-spacing:0px;word-spacing:0px;fill:#ffffff;fill-opacity:1;stroke:none;stroke-width:1px;stroke-linecap:butt;stroke-linejoin:miter;stroke-opacity:1"
       id="text3336">
      <path
         style="font-style:normal;font-variant:normal;font-weight:600;font-stretch:normal;font-family:'Segoe WP';-inkscape-font-specification:'Segoe WP Semi-Bold';fill:#ffffff"
         d="m 329.83819,585.14909 q -1.2359,27.89603 -15.00736,43.43306 -13.5949,15.36047 -37.077,15.36047 -19.06818,0 -46.25798,-17.83227 -16.94948,-11.29966 -27.71947,-11.29966 -23.4821,0 -24.54145,29.6616 l -29.30848,0 q 0.88278,-27.54291 14.8308,-43.07994 13.94801,-15.71359 37.60667,-15.71359 18.5385,0 40.96126,14.47769 22.95243,14.8308 34.25209,14.8308 10.24031,0 16.41981,-8.12163 6.1795,-8.29819 6.53262,-21.71653 l 29.30849,0 z"
         id="path4145"
         inkscape:connector-curvature="0" />
      <path
         style="font-style:normal;font-variant:normal;font-weight:600;font-stretch:normal;font-family:'Segoe WP';-inkscape-font-specification:'Segoe WP Semi-Bold';fill:#ffffff"
         d="m 329.83819,660.53899 q -1.2359,28.07259 -15.00736,43.60962 -13.5949,15.53703 -37.077,15.53703 -19.24473,0 -46.96421,-18.00883 -16.59637,-11.1231 -28.07258,-11.1231 -22.59932,0 -23.48211,29.6616 l -29.30848,0 q 0.88278,-27.36636 14.8308,-43.2565 13.94801,-15.89014 37.60667,-15.89014 18.5385,0 40.96126,14.65424 22.95243,15.00736 34.25209,15.00736 10.24031,0 16.41981,-8.47475 6.1795,-8.47474 6.53262,-21.71653 l 29.30849,0 z"
         id="path4141"
         inkscape:connector-curvature="0" />
    </g>
  </g>
</svg>
